<?xml version="1.0" encoding="UTF-8"?>
<svg id="Layer_1" xmlns="http://www.w3.org/2000/svg" version="1.1" viewBox="0 0 1216.9 115.9">
  <!-- Generator: Adobe Illustrator 29.6.1, SVG Export Plug-In . SVG Version: 2.1.1 Build 9)  -->
  <defs>
    <style>
      .st0 {
        fill: #f15a22;
      }

      .st1 {
        fill: #414042;
      }
    </style>
  </defs>
  <g>
    <path class="st1" d="M0,1.9h12.4v110H0V1.9Z"/>
    <path class="st1" d="M49.6,1.9h12.6l40.1,60L142.3,1.9h12.6v110h-12.4V22.8l-40.1,58.9h-.6L61.7,22.9v88.9h-12.1V1.9Z"/>
    <path class="st1" d="M230.3,1.1h11.6l50.1,110.7h-13.4l-12.9-29.1h-59.8l-13,29.1h-12.7L230.3,1.1ZM261,71.6l-25-56.1-25.1,56.1h50.1Z"/>
    <path class="st1" d="M361.8,113.7c-8.6,0-16.3-1.5-23.2-4.4-6.9-2.9-12.8-7-17.7-12.1-4.9-5.1-8.6-11.1-11.2-18-2.6-6.9-3.8-14.2-3.8-22.1v-.3c0-7.5,1.3-14.7,4-21.6,2.7-6.9,6.4-12.9,11.2-18.1,4.8-5.2,10.6-9.4,17.4-12.5,6.8-3.1,14.3-4.6,22.5-4.6s8.8.3,12.6.9c3.8.6,7.4,1.6,10.7,2.8,3.3,1.3,6.4,2.8,9.3,4.6,2.9,1.8,5.7,3.9,8.4,6.2l-8,9.4c-4.2-3.7-8.9-6.7-14.1-9-5.2-2.4-11.7-3.5-19.4-3.5s-11.7,1.2-16.8,3.6c-5.1,2.4-9.5,5.7-13.2,9.7-3.7,4.1-6.5,8.9-8.6,14.3-2.1,5.4-3.1,11.3-3.1,17.4v.3c0,6.6,1,12.7,3.1,18.2,2,5.6,4.9,10.4,8.7,14.5,3.8,4.1,8.3,7.3,13.7,9.6,5.3,2.3,11.4,3.5,18.1,3.5s12.2-1.1,17.7-3.2c5.5-2.1,10.2-4.7,14-7.8v-27.3h-33.5v-11.2h45.4v43.8c-5.1,4.6-11.4,8.6-18.9,11.9-7.5,3.3-15.9,4.9-25.2,4.9Z"/>
    <path class="st1" d="M440,1.9h79.5v11.5h-67.1v37.2h60v11.5h-60v38.3h67.9v11.5h-80.3V1.9Z"/>
  </g>
  <g>
    <path class="st1" d="M567.9,62.6h18.2c2.7,0,5.2.4,7.4,1.1,2.2.7,4.2,1.7,5.8,3,1.6,1.3,2.8,2.9,3.7,4.8.9,1.9,1.3,4,1.3,6.4h0c0,2.8-.5,5.1-1.5,7-1,2-2.4,3.6-4.1,5-1.7,1.3-3.8,2.3-6.1,3-2.3.7-4.8,1-7.3,1h-11.8v17.1h-5.5v-48.5ZM585.3,89c2,0,3.9-.3,5.5-.8,1.6-.5,3-1.2,4.2-2.2,1.2-.9,2.1-2.1,2.7-3.4.6-1.3.9-2.8.9-4.3h0c0-3.6-1.2-6.2-3.6-8-2.4-1.8-5.5-2.7-9.5-2.7h-12.3v21.3h12Z"/>
    <path class="st1" d="M638.9,62.6h20.9c3,0,5.7.4,8,1.3,2.3.9,4.3,2,5.8,3.6,1.2,1.2,2.1,2.6,2.8,4.2.6,1.6,1,3.4,1,5.3h0c0,2.1-.3,3.9-1,5.5-.6,1.6-1.6,3-2.7,4.2-1.2,1.2-2.6,2.1-4.2,2.9-1.6.8-3.4,1.3-5.3,1.7l14.9,19.8h-6.7l-14.1-18.8h-13.9v18.8h-5.5v-48.5ZM659.4,87.4c1.8,0,3.5-.2,5-.7,1.5-.5,2.8-1.1,4-2,1.1-.9,2-1.9,2.6-3.1.6-1.2.9-2.6.9-4.2h0c0-3.1-1.1-5.5-3.3-7.2-2.2-1.7-5.2-2.5-9.2-2.5h-15v19.7h14.9Z"/>
    <path class="st1" d="M736.4,112c-3.7,0-7.1-.7-10.1-2-3-1.3-5.6-3.2-7.8-5.4-2.2-2.3-3.8-4.9-5-8-1.2-3-1.8-6.2-1.8-9.5h0c0-3.5.6-6.7,1.8-9.7,1.2-3,2.9-5.7,5.1-8,2.2-2.3,4.8-4.1,7.8-5.5,3-1.4,6.4-2,10.1-2s7.1.7,10.1,2c3,1.3,5.6,3.2,7.8,5.4,2.2,2.3,3.8,4.9,5,8,1.2,3,1.8,6.2,1.8,9.5,0,0,0,0,0,.1,0,3.3-.6,6.5-1.8,9.6-1.2,3-2.9,5.7-5.1,8-2.2,2.3-4.8,4.1-7.8,5.5-3,1.4-6.4,2-10.1,2ZM736.5,106.9c2.8,0,5.3-.5,7.7-1.6,2.3-1,4.3-2.5,6-4.3,1.7-1.8,3-3.9,3.9-6.3.9-2.4,1.4-5,1.4-7.8h0c0-2.9-.5-5.5-1.4-7.9-.9-2.4-2.3-4.5-4-6.3-1.7-1.8-3.7-3.2-6.1-4.3-2.3-1.1-4.9-1.6-7.7-1.6s-5.3.5-7.7,1.6c-2.3,1-4.3,2.5-6,4.3-1.7,1.8-3,3.9-3.9,6.3-.9,2.4-1.4,5-1.4,7.8h0c0,2.9.5,5.5,1.4,7.9.9,2.4,2.3,4.5,4,6.3,1.7,1.8,3.7,3.2,6.1,4.3,2.3,1.1,4.9,1.6,7.7,1.6Z"/>
    <path class="st1" d="M797.5,62.6h18.2c2.7,0,5.2.4,7.4,1.1,2.2.7,4.2,1.7,5.8,3,1.6,1.3,2.8,2.9,3.7,4.8.9,1.9,1.3,4,1.3,6.4h0c0,2.8-.5,5.1-1.5,7-1,2-2.4,3.6-4.1,5-1.7,1.3-3.8,2.3-6.1,3-2.3.7-4.8,1-7.3,1h-11.8v17.1h-5.5v-48.5ZM815,89c2,0,3.9-.3,5.5-.8,1.6-.5,3-1.2,4.2-2.2,1.2-.9,2.1-2.1,2.7-3.4.6-1.3.9-2.8.9-4.3h0c0-3.6-1.2-6.2-3.6-8-2.4-1.8-5.5-2.7-9.5-2.7h-12.3v21.3h12Z"/>
    <path class="st1" d="M868.6,62.6h35.1v5.1h-29.6v16.4h26.5v5.1h-26.5v16.9h29.9v5.1h-35.4v-48.5Z"/>
    <path class="st1" d="M939.8,62.6h20.9c3,0,5.7.4,8,1.3,2.3.9,4.3,2,5.8,3.6,1.2,1.2,2.1,2.6,2.8,4.2.6,1.6,1,3.4,1,5.3h0c0,2.1-.3,3.9-1,5.5-.6,1.6-1.6,3-2.7,4.2-1.2,1.2-2.6,2.1-4.2,2.9-1.6.8-3.4,1.3-5.3,1.7l14.9,19.8h-6.7l-14.1-18.8h-13.9v18.8h-5.5v-48.5ZM960.3,87.4c1.8,0,3.5-.2,5-.7,1.5-.5,2.8-1.1,4-2,1.1-.9,2-1.9,2.6-3.1.6-1.2.9-2.6.9-4.2h0c0-3.1-1.1-5.5-3.3-7.2-2.2-1.7-5.2-2.5-9.2-2.5h-15v19.7h14.9Z"/>
    <path class="st1" d="M1027.1,67.7h-16.3v-5.1h38v5.1h-16.3v43.4h-5.5v-43.4Z"/>
    <path class="st1" d="M1099.1,91.9l-20.2-29.3h6.7l16.3,24.3,16.5-24.3h6.4l-20.2,29.2v19.3h-5.5v-19.2Z"/>
  </g>
  <circle class="st0" cx="1187.9" cy="86.9" r="29"/>
</svg>